<svg id="visual" viewBox="0 0 540 760" width="540" height="760" xmlns="http://www.w3.org/2000/svg" xmlns:xlink="http://www.w3.org/1999/xlink" version="1.1"><rect x="0" y="0" width="540" height="760" fill="#ED8936"></rect><path d="M0 469L11.3 469.5C22.7 470 45.3 471 67.8 468.8C90.3 466.7 112.7 461.3 135.2 455.7C157.7 450 180.3 444 202.8 448.3C225.3 452.7 247.7 467.3 270.2 465.8C292.7 464.3 315.3 446.7 337.8 445.7C360.3 444.7 382.7 460.3 405.2 469C427.7 477.7 450.3 479.3 472.8 471.3C495.3 463.3 517.7 445.7 528.8 436.8L540 428L540 761L528.8 761C517.7 761 495.3 761 472.8 761C450.3 761 427.7 761 405.2 761C382.7 761 360.3 761 337.8 761C315.3 761 292.7 761 270.2 761C247.7 761 225.3 761 202.8 761C180.3 761 157.7 761 135.2 761C112.7 761 90.3 761 67.8 761C45.3 761 22.7 761 11.3 761L0 761Z" fill="#f8f8f8" stroke-linecap="round" stroke-linejoin="miter"></path></svg>