<svg id="visual" viewBox="0 0 960 540" width="960" height="540" xmlns="http://www.w3.org/2000/svg" xmlns:xlink="http://www.w3.org/1999/xlink" version="1.1"><rect x="0" y="0" width="960" height="540" fill="#ED8936"></rect><path d="M0 314L22.8 307.8C45.7 301.7 91.3 289.3 137 291.5C182.7 293.7 228.3 310.3 274 328.7C319.7 347 365.3 367 411.2 369.5C457 372 503 357 548.8 362.5C594.7 368 640.3 394 686 389.5C731.7 385 777.3 350 823 325.8C868.7 301.7 914.3 288.3 937.2 281.7L960 275L960 541L937.2 541C914.3 541 868.7 541 823 541C777.3 541 731.7 541 686 541C640.3 541 594.7 541 548.8 541C503 541 457 541 411.2 541C365.3 541 319.7 541 274 541C228.3 541 182.7 541 137 541C91.3 541 45.7 541 22.8 541L0 541Z" fill="#f8f8f8" stroke-linecap="round" stroke-linejoin="miter"></path></svg>