<svg id="visual" viewBox="0 0 1900 740" width="1900" height="740" xmlns="http://www.w3.org/2000/svg" xmlns:xlink="http://www.w3.org/1999/xlink" version="1.1"><rect x="0" y="0" width="1900" height="740" fill="#ED8936"></rect><path d="M0 368L39.7 370.5C79.3 373 158.7 378 237.8 386.5C317 395 396 407 475.2 423.8C554.3 440.7 633.7 462.3 712.8 465.2C792 468 871 452 950.2 462.7C1029.3 473.3 1108.7 510.7 1187.8 493.8C1267 477 1346 406 1425.2 376.7C1504.3 347.3 1583.7 359.7 1662.8 380.5C1742 401.3 1821 430.7 1860.5 445.3L1900 460L1900 741L1860.5 741C1821 741 1742 741 1662.8 741C1583.7 741 1504.3 741 1425.2 741C1346 741 1267 741 1187.8 741C1108.7 741 1029.3 741 950.2 741C871 741 792 741 712.8 741C633.7 741 554.3 741 475.2 741C396 741 317 741 237.8 741C158.7 741 79.3 741 39.7 741L0 741Z" fill="#f8f8f8" stroke-linecap="round" stroke-linejoin="miter"></path></svg>